<?xml version="1.0" encoding="utf-8"?>
<!-- Generator: Adobe Illustrator 25.1.0, SVG Export Plug-In . SVG Version: 6.00 Build 0)  -->
<svg version="1.1" xmlns="http://www.w3.org/2000/svg" xmlns:xlink="http://www.w3.org/1999/xlink" x="0px" y="0px"
	 viewBox="0 0 750 500" style="enable-background:new 0 0 750 500;" xml:space="preserve">
<style type="text/css">
	.st0{display:none;}
	.st1{clip-path:url(#SVGID_2_);fill:none;stroke:#606060;stroke-miterlimit:10;}
	.st2{display:none;clip-path:url(#SVGID_2_);fill:#B8E3DB;}
	.st3{clip-path:url(#SVGID_2_);fill:#FFCF54;}
	.st4{clip-path:url(#SVGID_2_);fill:#B8E3DB;}
	.st5{display:none;clip-path:url(#SVGID_2_);fill:#CEF0E6;}
	.st6{clip-path:url(#SVGID_2_);}
	.st7{fill:#31346B;}
	.st8{clip-path:url(#SVGID_2_);fill:#31346B;}
	.st9{clip-path:url(#SVGID_2_);fill:none;stroke:#FFFFFF;stroke-width:3;stroke-linecap:round;stroke-miterlimit:10;}
	.st10{clip-path:url(#SVGID_2_);fill:#CEF0E6;}
	.st11{clip-path:url(#SVGID_2_);fill:#F7F3EA;}
	.st12{clip-path:url(#SVGID_2_);fill:#FFFFFF;}
	.st13{display:none;clip-path:url(#SVGID_2_);fill:none;stroke:#31346B;stroke-width:3;stroke-linecap:round;stroke-miterlimit:10;}
	.st14{clip-path:url(#SVGID_2_);fill:none;stroke:#31346B;stroke-width:3;stroke-linecap:round;stroke-miterlimit:10;}
</style>
<g id="BACKGROUND" class="st0">
</g>
<g id="OBJECTS">
	<g>
		<defs>
			<rect id="SVGID_1_" x="1.3" y="-12.6" width="750" height="500"/>
		</defs>
		<clipPath id="SVGID_2_">
			<use xlink:href="#SVGID_1_"  style="display:none;overflow:visible;"/>
		</clipPath>
		<line class="st1" x1="-47.9" y1="-89.9" x2="-85.1" y2="-89.9"/>
		<path class="st2" d="M250.5-11.7l26.2,26.2c18.2,18.2,47.7,18.2,65.8,0l15-15c3.2-3.2,8.3-3.2,11.5,0l0.1,0.1
			c3.3,3.3,3.3,8.6,0,11.9c-5,5-39.8,39.8-47.7,47.7c-16.6,16.6-16.6,43.5,0,60.1v0c16.6,16.6,43.5,16.6,60.1,0L527.1-26.3l32,4.4
			l-53,53c-23.1,23.1-23.1,60.6,0,83.7l0,0c23.1,23.1,60.6,23.1,83.7,0l81-81c3.5-3.5,9.2-3.5,12.7,0l0,0c3.5,3.5,3.5,9.2,0,12.7
			L563.7,166.4c-13.1,13.1-13.1,34.2,0,47.3v0c13.1,13.1,34.2,13.1,47.3,0l83.1-83.1c3.8-3.8,9.9-3.8,13.6,0l0,0
			c3.8,3.8,3.8,9.9,0,13.6l-1.5,1.5c-27.6,27.6-27.6,72.3,0,99.9l62,62V-51.7"/>
		
			<ellipse transform="matrix(8.995780e-02 -0.9959 0.9959 8.995780e-02 126.8354 113.9303)" class="st3" cx="125.8" cy="-12.4" rx="64.9" ry="64.9"/>
		<circle class="st3" cx="659" cy="487.5" r="40.7"/>
		<path class="st4" d="M233.4,30.9c-20.6,0-37.3,16.7-37.3,37.3s16.7,37.3,37.3,37.3c20.6,0,37.3-16.7,37.3-37.3
			S254,30.9,233.4,30.9z M233.4,98.2c-16.6,0-30-13.4-30-30c0-16.5,13.4-30,30-30c16.5,0,30,13.4,30,30
			C263.4,84.8,250,98.2,233.4,98.2z"/>
		
			<ellipse transform="matrix(0.9239 -0.3827 0.3827 0.9239 -55.0281 287.1278)" class="st3" cx="694.2" cy="281.9" rx="17.6" ry="17.6"/>
		<circle class="st3" cx="217.5" cy="320.3" r="8.4"/>
		<circle class="st3" cx="235.5" cy="302.3" r="8.4"/>
		
			<ellipse transform="matrix(0.7071 -0.7071 0.7071 0.7071 -132.7597 59.0966)" class="st3" cx="5" cy="189.8" rx="17.6" ry="17.6"/>
		<path class="st5" d="M-12.9,301.6l82-82c18.4-18.4,48.2-18.4,66.5,0l0,0c18.4,18.4,18.4,48.2,0,66.5l-37.3,37.3
			c-8.1,8.1-8.1,21.1,0,29.2l0,0c8.1,8.1,21.1,8.1,29.2,0l8.1-8.1c16.6-16.6,43.5-16.6,60.1,0l0,0c16.6,16.6,16.6,43.5,0,60.1
			l-33.3,33.3c-3.6,3.6-3.6,9.4,0,13v0c3.6,3.6,9.4,3.6,13,0l81.2-81.2c14.3-14.3,37.6-14.3,51.9,0v0c14.3,14.3,14.3,37.6,0,51.9
			l-21.9,21.9c-3.1,3.1-3.1,8.2,0,11.4v0c3.1,3.1,8.2,3.1,11.4,0l1.8-1.8c38.4-38.4,100.8-38.4,139.2,0l37.5,37.5h-607.9
			C-131.4,490.7-5.6,308.9-12.9,301.6z"/>
		<g class="st6">
			<path class="st7" d="M586.3,396.8L586.3,396.8c1.8-1.8,4.6-1.8,6.4,0l13.6,13.6c1.8,1.8,1.8,4.6,0,6.4l0,0
				c-1.8,1.8-4.6,1.8-6.4,0l-13.6-13.6C584.6,401.5,584.6,398.6,586.3,396.8z"/>
			<path class="st7" d="M606.3,396.8L606.3,396.8c1.8,1.8,1.8,4.6,0,6.4l-13.6,13.6c-1.8,1.8-4.6,1.8-6.4,0l0,0
				c-1.8-1.8-1.8-4.6,0-6.4l13.6-13.6C601.6,395.1,604.5,395.1,606.3,396.8z"/>
		</g>
		<g class="st6">
			<path class="st7" d="M208.3,181.5L208.3,181.5c1.1-1.1,3-1.1,4.1,0l8.8,8.8c1.1,1.1,1.1,3,0,4.1l0,0c-1.1,1.1-3,1.1-4.1,0
				l-8.8-8.8C207.1,184.5,207.1,182.7,208.3,181.5z"/>
			<path class="st7" d="M221.3,181.5L221.3,181.5c1.1,1.1,1.1,3,0,4.1l-8.8,8.8c-1.1,1.1-3,1.1-4.1,0l0,0c-1.1-1.1-1.1-3,0-4.1
				l8.8-8.8C218.3,180.4,220.1,180.4,221.3,181.5z"/>
		</g>
		<circle class="st8" cx="401.6" cy="99.4" r="19.1"/>
		<circle class="st8" cx="-25.6" cy="563.1" r="7.5"/>
		<circle class="st8" cx="56.4" cy="91.3" r="10.6"/>
		<g class="st6">
			<circle class="st7" cx="496.4" cy="153" r="3.2"/>
			<circle class="st7" cx="496.4" cy="169.5" r="3.2"/>
			<circle class="st7" cx="512.5" cy="153" r="3.2"/>
			<circle class="st7" cx="512.5" cy="169.5" r="3.2"/>
		</g>
		<g class="st6">
			<g>
				<circle class="st7" cx="46.9" cy="123.2" r="3.2"/>
				<circle class="st7" cx="46.9" cy="139.7" r="3.2"/>
				<circle class="st7" cx="63" cy="123.2" r="3.2"/>
				<circle class="st7" cx="63" cy="139.7" r="3.2"/>
			</g>
			<g>
				<circle class="st7" cx="14.4" cy="123.2" r="3.2"/>
				<circle class="st7" cx="14.4" cy="139.7" r="3.2"/>
				<circle class="st7" cx="30.5" cy="123.2" r="3.2"/>
				<circle class="st7" cx="30.5" cy="139.7" r="3.2"/>
			</g>
		</g>
		<g class="st6">
			<g>
				<g>
					<circle class="st7" cx="657.6" cy="398.4" r="3.2"/>
					<path class="st7" d="M660.8,414.9c0,1.7-1.4,3.2-3.2,3.2c-1.7,0-3.2-1.4-3.2-3.2c0-1.7,1.4-3.2,3.2-3.2
						C659.4,411.8,660.8,413.2,660.8,414.9z"/>
					<circle class="st7" cx="673.7" cy="398.4" r="3.2"/>
					<path class="st7" d="M676.8,414.9c0,1.7-1.4,3.2-3.2,3.2c-1.7,0-3.2-1.4-3.2-3.2c0-1.7,1.4-3.2,3.2-3.2
						C675.4,411.8,676.8,413.2,676.8,414.9z"/>
				</g>
				<g>
					<circle class="st7" cx="625.1" cy="398.4" r="3.2"/>
					<path class="st7" d="M628.3,414.9c0,1.7-1.4,3.2-3.2,3.2c-1.7,0-3.2-1.4-3.2-3.2c0-1.7,1.4-3.2,3.2-3.2
						C626.9,411.8,628.3,413.2,628.3,414.9z"/>
					<circle class="st7" cx="641.2" cy="398.4" r="3.2"/>
					<path class="st7" d="M644.3,414.9c0,1.7-1.4,3.2-3.2,3.2c-1.7,0-3.2-1.4-3.2-3.2c0-1.7,1.4-3.2,3.2-3.2
						C642.9,411.8,644.3,413.2,644.3,414.9z"/>
				</g>
			</g>
			<g>
				<g>
					<circle class="st7" cx="722.6" cy="398.4" r="3.2"/>
					<path class="st7" d="M725.7,414.9c0,1.7-1.4,3.2-3.2,3.2c-1.7,0-3.2-1.4-3.2-3.2c0-1.7,1.4-3.2,3.2-3.2
						C724.3,411.8,725.7,413.2,725.7,414.9z"/>
					<path class="st7" d="M741.8,398.4c0,1.7-1.4,3.2-3.2,3.2c-1.7,0-3.2-1.4-3.2-3.2c0-1.7,1.4-3.2,3.2-3.2
						C740.4,395.3,741.8,396.7,741.8,398.4z"/>
					<path class="st7" d="M741.8,414.9c0,1.7-1.4,3.2-3.2,3.2c-1.7,0-3.2-1.4-3.2-3.2c0-1.7,1.4-3.2,3.2-3.2
						C740.4,411.8,741.8,413.2,741.8,414.9z"/>
				</g>
				<g>
					<circle class="st7" cx="690.1" cy="398.4" r="3.2"/>
					<path class="st7" d="M693.2,414.9c0,1.7-1.4,3.2-3.2,3.2c-1.7,0-3.2-1.4-3.2-3.2c0-1.7,1.4-3.2,3.2-3.2
						C691.8,411.8,693.2,413.2,693.2,414.9z"/>
					<circle class="st7" cx="706.1" cy="398.4" r="3.2"/>
					<path class="st7" d="M709.3,414.9c0,1.7-1.4,3.2-3.2,3.2c-1.7,0-3.2-1.4-3.2-3.2c0-1.7,1.4-3.2,3.2-3.2
						C707.9,411.8,709.3,413.2,709.3,414.9z"/>
				</g>
			</g>
		</g>
		<circle class="st8" cx="233.8" cy="391.8" r="7.8"/>
		<circle class="st8" cx="653.7" cy="171.7" r="7.8"/>
		<line class="st9" x1="647.2" y1="123" x2="774.4" y2="-4.2"/>
		<line class="st9" x1="419.9" y1="45" x2="486.5" y2="-21.6"/>
		<line class="st9" x1="-12.2" y1="404.4" x2="117.1" y2="275.1"/>
		<line class="st9" x1="128.3" y1="562.8" x2="244.2" y2="447"/>
		<line class="st9" x1="-75.7" y1="431.3" x2="40.2" y2="315.4"/>
		<circle class="st10" cx="164.9" cy="187.6" r="15.7"/>
		<circle class="st4" cx="457.4" cy="107.5" r="8.3"/>
		<circle class="st11" cx="722" cy="112.6" r="8.3"/>
		<circle class="st12" cx="75" cy="379.4" r="20.5"/>
		<path class="st4" d="M483.7,417.6c-38.6,0-70,31.4-70,70c0,38.6,31.4,70,70,70s70-31.4,70-70C553.6,449,522.3,417.6,483.7,417.6z
			 M483.7,543.8c-31,0-56.2-25.1-56.2-56.2s25.1-56.2,56.2-56.2c31,0,56.2,25.1,56.2,56.2S514.7,543.8,483.7,543.8z"/>
		<path class="st2" d="M31.7,494.7c1.4-0.5,54.9-54.5,75.3-75.2c4.3-4.4,11.4-4.4,15.7,0l0,0c4.3,4.3,4.3,11.4,0,15.7L105.9,452
			c-2.2,2.2-2.2,5.7,0,7.9h0c2.2,2.2,5.7,2.2,7.9,0l7-7c4.8-4.8,12.5-4.8,17.2,0h0c4.8,4.8,4.8,12.5,0,17.2h0c-2,2-2,5.3,0,7.3
			l19.7,19.7H29.9"/>
		<path class="st5" d="M632.2-21.9L571.3,39c-5.7,5.7-5.7,14.8,0,20.5l0,0c5.7,5.7,14.8,5.7,20.5,0L624.3,27c1.9-1.9,5.1-1.9,7,0
			l0,0c1.9,1.9,1.9,5.1,0,7l-11.1,11.1c-3.1,3.1-3.1,8,0,11.1l0,0c3.1,3.1,8,3.1,11.1,0l29.8-29.8c6.7-6.7,16.8-8,24.7-3.8
			c1.9,1,3.6,2.2,5.2,3.8l0.8,0.8l58-58C749.9-30.9,632.2-22.5,632.2-21.9z"/>
		<line class="st13" x1="300.5" y1="503" x2="445.2" y2="358.3"/>
		<line class="st14" x1="-90.8" y1="581.4" x2="53.9" y2="436.8"/>
		<line class="st14" x1="466.3" y1="-53.1" x2="349.1" y2="64.1"/>
		<line class="st14" x1="223.8" y1="79.9" x2="194.4" y2="109.3"/>
		<line class="st13" x1="392" y1="443.6" x2="420.2" y2="415.4"/>
		<path class="st5" d="M695.7,30.8l-4.6-4.5c0,0,49.3-55.7,50.4-56.9c1.2-1.2,35.5,3.7,35.5,3.7l-54.7,57.1
			C715.1,37.8,703.1,38,695.7,30.8z"/>
	</g>
</g>
</svg>
